<svg width="64" height="64" viewBox="0 0 64 64" fill="none" xmlns="http://www.w3.org/2000/svg">
<path d="M40 0C44.3493 0 47.8877 3.47075 47.9972 7.7935L48.0028 8.2065C48.1105 12.4608 51.5392 15.8895 55.7935 15.9972L56.2065 16.0028C60.5293 16.1123 64 19.6507 64 24C64 28.4183 60.4183 32 56 32C60.4183 32 64 35.5817 64 40C64 44.3493 60.5293 47.8877 56.2065 47.9972L55.7935 48.0028C51.5392 48.1105 48.1105 51.5392 48.0028 55.7935L47.9972 56.2065C47.8877 60.5293 44.3493 64 40 64C35.5817 64 32 60.4183 32 56C32 60.4183 28.4183 64 24 64C19.6507 64 16.1123 60.5293 16.0025 56.2065L15.9975 55.7935C15.8895 51.5392 12.4608 48.1105 8.2065 48.0028L7.7935 47.9972C3.47075 47.8877 0 44.3493 0 40C0 35.5817 3.58175 32 8 32C3.58175 32 0 28.4183 0 24C0 19.6507 3.47075 16.1123 7.7935 16.0025L8.2065 15.9975C12.4608 15.8895 15.8895 12.4608 15.9972 8.2065L16.0028 7.7935C16.1123 3.47075 19.6507 0 24 0C28.4183 0 32 3.58175 32 8C32 3.58175 35.5817 0 40 0ZM32 16C32 24.8365 24.8365 32 16 32C24.8365 32 32 39.1635 32 48C32 39.1635 39.1635 32 48 32C39.1635 32 32 24.8365 32 16Z" fill="#331926"/>
</svg>
