<svg width="64" height="64" viewBox="0 0 64 64" fill="none" xmlns="http://www.w3.org/2000/svg">
<g clip-path="url(#clip0_638_3412)">
<path d="M32 0C36.92 0 41.01 3.55325 41.8442 8.2335C45.7435 5.51375 51.1485 5.8935 54.6275 9.3725C58.1065 12.8515 58.486 18.2563 55.7665 22.1555C60.4467 22.99 64 27.08 64 32C64 36.92 60.4468 41.01 55.7663 41.8442C58.486 45.7435 58.1065 51.1485 54.6275 54.6275C51.1485 58.1065 45.7435 58.486 41.8442 55.7663C41.01 60.4468 36.92 64 32 64C27.08 64 22.9897 60.4468 22.1555 55.7663C18.2563 58.486 12.8515 58.1065 9.3725 54.6275C5.8935 51.1485 5.51375 45.7435 8.2335 41.8442C3.55325 41.01 0 36.92 0 32C0 27.08 3.55325 22.99 8.2335 22.1555C5.514 18.2563 5.8935 12.8515 9.3725 9.3725C12.8515 5.8935 18.2563 5.51375 22.1555 8.2335C22.99 3.55325 27.08 0 32 0Z" fill="#331926"/>
</g>
<defs>
<clipPath id="clip0_638_3412">
<rect width="64" height="64" fill="white"/>
</clipPath>
</defs>
</svg>
