<svg width="64" height="64" viewBox="0 0 64 64" fill="none" xmlns="http://www.w3.org/2000/svg">
<path d="M8 48C8 52.4183 11.5817 56 16 56C16 60.4183 12.4183 64 8 64C3.58175 64 0 60.4183 0 56C0 51.5817 3.58175 48 8 48ZM24 48C24 52.4183 27.5817 56 32 56C32 60.4183 28.4183 64 24 64C19.5817 64 16 60.4183 16 56C20.4183 56 24 52.4183 24 48ZM40 48C40 52.4183 43.5817 56 48 56C48 60.4183 44.4183 64 40 64C35.5817 64 32 60.4183 32 56C36.4183 56 40 52.4183 40 48ZM56 48C60.4183 48 64 51.5817 64 56C64 60.4183 60.4183 64 56 64C51.5817 64 48 60.4183 48 56C52.4183 56 56 52.4183 56 48ZM8 32C8 36.4183 11.5817 40 16 40C11.5817 40 8 43.5817 8 48C3.58175 48 0 44.4183 0 40C0 35.5817 3.58175 32 8 32ZM24 32C24 36.4183 27.5817 40 32 40C32 44.4183 28.4183 48 24 48C19.5817 48 16 44.4183 16 40C16 35.5817 19.5817 32 24 32ZM40 32C44.4183 32 48 35.5817 48 40C48 44.4183 44.4183 48 40 48C35.5817 48 32 44.4183 32 40C36.4183 40 40 36.4183 40 32ZM56 32C60.4183 32 64 35.5817 64 40C64 44.4183 60.4183 48 56 48C56 43.5817 52.4183 40 48 40C52.4183 40 56 36.4183 56 32ZM8 16C8 20.4183 11.5817 24 16 24C11.5817 24 8 27.5817 8 32C3.58175 32 0 28.4183 0 24C0 19.5817 3.58175 16 8 16ZM24 16C28.4183 16 32 19.5817 32 24C27.5817 24 24 27.5817 24 32C19.5817 32 16 28.4183 16 24C16 19.5817 19.5817 16 24 16ZM40 16C44.4183 16 48 19.5817 48 24C48 28.4183 44.4183 32 40 32C40 27.5817 36.4183 24 32 24C32 19.5817 35.5817 16 40 16ZM56 16C60.4183 16 64 19.5817 64 24C64 28.4183 60.4183 32 56 32C56 27.5817 52.4183 24 48 24C52.4183 24 56 20.4183 56 16ZM8 0C12.4183 0 16 3.58175 16 8C11.5817 8 8 11.5817 8 16C3.58175 16 0 12.4183 0 8C0 3.58175 3.58175 0 8 0ZM24 0C28.4183 0 32 3.58175 32 8C27.5817 8 24 11.5817 24 16C24 11.5817 20.4183 8 16 8C16 3.58175 19.5817 0 24 0ZM40 0C44.4183 0 48 3.58175 48 8C43.5817 8 40 11.5817 40 16C40 11.5817 36.4183 8 32 8C32 3.58175 35.5817 0 40 0ZM56 0C60.4183 0 64 3.58175 64 8C64 12.4183 60.4183 16 56 16C56 11.5817 52.4183 8 48 8C48 3.58175 51.5817 0 56 0Z" fill="#331926"/>
</svg>
