<svg width="64" height="64" viewBox="0 0 64 64" fill="none" xmlns="http://www.w3.org/2000/svg">
<path d="M48 0C56.8365 0 64 7.1635 64 16C64 24.8365 56.8365 32 48 32C56.8365 32 64 39.1635 64 48C64 56.8365 56.8365 64 48 64C39.1635 64 32 56.8365 32 48C32 56.8365 24.8365 64 16 64C7.1635 64 0 56.8365 0 48C0 39.1635 7.1635 32 16 32C7.1635 32 0 24.8365 0 16C0 7.1635 7.1635 0 16 0C24.8365 0 32 7.1635 32 16C32 7.1635 39.1635 0 48 0ZM16 40C11.5817 40 8 43.5817 8 48C8 52.4183 11.5817 56 16 56C20.4183 56 24 52.4183 24 48C24 43.5817 20.4183 40 16 40ZM48 40C43.5817 40 40 43.5817 40 48C40 52.4183 43.5817 56 48 56C52.4183 56 56 52.4183 56 48C56 43.5817 52.4183 40 48 40ZM16 8C11.5817 8 8 11.5817 8 16C8 20.4183 11.5817 24 16 24C20.4183 24 24 20.4183 24 16C24 11.5817 20.4183 8 16 8ZM48 8C43.5817 8 40 11.5817 40 16C40 20.4183 43.5817 24 48 24C52.4183 24 56 20.4183 56 16C56 11.5817 52.4183 8 48 8Z" fill="#331926"/>
</svg>
