<svg width="20" height="20" viewBox="0 0 20 20" fill="none" xmlns="http://www.w3.org/2000/svg">
<path d="M16.6666 8.33268C16.6666 12.4935 12.0508 16.8269 10.5008 18.1652C10.3564 18.2738 10.1806 18.3325 9.99998 18.3325C9.81931 18.3325 9.64354 18.2738 9.49915 18.1652C7.94915 16.8269 3.33331 12.4935 3.33331 8.33268C3.33331 6.56457 4.03569 4.86888 5.28593 3.61864C6.53618 2.36839 8.23187 1.66602 9.99998 1.66602C11.7681 1.66602 13.4638 2.36839 14.714 3.61864C15.9643 4.86888 16.6666 6.56457 16.6666 8.33268Z" stroke="#331926" stroke-linecap="round" stroke-linejoin="round"/>
<path d="M9.99998 10.8327C11.3807 10.8327 12.5 9.7134 12.5 8.33268C12.5 6.95197 11.3807 5.83268 9.99998 5.83268C8.61927 5.83268 7.49998 6.95197 7.49998 8.33268C7.49998 9.7134 8.61927 10.8327 9.99998 10.8327Z" stroke="#331926" stroke-linecap="round" stroke-linejoin="round"/>
</svg>
