<svg width="20" height="20" viewBox="0 0 20 20" fill="none" xmlns="http://www.w3.org/2000/svg">
<path d="M18.3333 14.0994V16.5994C18.3343 16.8315 18.2867 17.0612 18.1937 17.2739C18.1008 17.4865 17.9644 17.6774 17.7934 17.8343C17.6224 17.9912 17.4205 18.1107 17.2006 18.185C16.9808 18.2594 16.7478 18.287 16.5167 18.2661C13.9523 17.9875 11.4892 17.1112 9.32498 15.7078C7.31151 14.4283 5.60443 12.7212 4.32499 10.7078C2.91663 8.53377 2.04019 6.05859 1.76665 3.48276C1.74583 3.25232 1.77321 3.02006 1.84707 2.80078C1.92092 2.5815 2.03963 2.38 2.19562 2.20911C2.35162 2.03822 2.54149 1.90169 2.75314 1.8082C2.9648 1.71471 3.1936 1.66631 3.42499 1.6661H5.92499C6.32941 1.66212 6.72148 1.80533 7.02812 2.06904C7.33476 2.33275 7.53505 2.69897 7.59165 3.09943C7.69717 3.89949 7.89286 4.68504 8.17499 5.4411C8.2871 5.73937 8.31137 6.06353 8.24491 6.37516C8.17844 6.6868 8.02404 6.97286 7.79998 7.19943L6.74165 8.25776C7.92795 10.3441 9.65536 12.0715 11.7417 13.2578L12.8 12.1994C13.0266 11.9754 13.3126 11.821 13.6243 11.7545C13.9359 11.688 14.26 11.7123 14.5583 11.8244C15.3144 12.1066 16.0999 12.3022 16.9 12.4078C17.3048 12.4649 17.6745 12.6688 17.9388 12.9807C18.203 13.2926 18.3435 13.6907 18.3333 14.0994Z" stroke="#331926" stroke-linecap="round" stroke-linejoin="round"/>
</svg>
