<svg width="64" height="64" viewBox="0 0 64 64" fill="none" xmlns="http://www.w3.org/2000/svg">
<path d="M48 0C56.8365 0 64 7.1635 64 16C64 24.8365 56.8365 32 48 32C56.8365 32 64 39.1635 64 48C64 56.8365 56.8365 64 48 64C39.1635 64 32 56.8365 32 48C32 56.8365 24.8365 64 16 64C7.1635 64 0 56.8365 0 48C0 39.1635 7.1635 32 16 32C7.1635 32 0 24.8365 0 16C0 7.1635 7.1635 0 16 0C24.8365 0 32 7.1635 32 16C32 7.1635 39.1635 0 48 0ZM32 25C28.134 25 25 28.134 25 32C25 35.866 28.134 39 32 39C35.866 39 39 35.866 39 32C39 28.134 35.866 25 32 25Z" fill="#331926"/>
</svg>
