<svg width="64" height="64" viewBox="0 0 64 64" fill="none" xmlns="http://www.w3.org/2000/svg">
<path d="M15 34C23.2843 34 30 40.7158 30 49C30 57.2842 23.2843 64 15 64C6.71575 64 0 57.2842 0 49C0 40.7158 6.71575 34 15 34ZM49 34C57.2842 34 64 40.7158 64 49C64 57.2842 57.2842 64 49 64C40.7158 64 34 57.2842 34 49C34 40.7158 40.7158 34 49 34ZM32 26C35.3138 26 38 28.6863 38 32C38 35.3138 35.3138 38 32 38C28.6863 38 26 35.3138 26 32C26 28.6863 28.6863 26 32 26ZM15 0C23.2843 0 30 6.71575 30 15C30 23.2843 23.2843 30 15 30C6.71575 30 0 23.2843 0 15C0 6.71575 6.71575 0 15 0ZM49 0C57.2842 0 64 6.71575 64 15C64 23.2843 57.2842 30 49 30C40.7158 30 34 23.2843 34 15C34 6.71575 40.7158 0 49 0Z" fill="#331926"/>
</svg>
